Coordinates
version=1
nRows=14
nColumns=36
inDegrees=yes

Units are S.I. units (second, meters, Newtons, ...)
If the header above contains a line with 'inDegrees', this indicates whether rotational values are in degrees (yes) or radians (no).

endheader
time	pelvis_tilt	pelvis_list	pelvis_rotation	pelvis_tx	pelvis_ty	pelvis_tz	hip_flexion_r	hip_adduction_r	hip_rotation_r	knee_angle_r	knee_angle_r_beta	ankle_angle_r	subtalar_angle_r	mtp_angle_r	hip_flexion_l	hip_adduction_l	hip_rotation_l	knee_angle_l	knee_angle_l_beta	ankle_angle_l	subtalar_angle_l	mtp_angle_l	lumbar_extension	lumbar_bending	lumbar_rotation	arm_flex_r	arm_add_r	arm_rot_r	elbow_flex_r	pro_sup_r	arm_flex_l	arm_add_l	arm_rot_l	elbow_flex_l	pro_sup_l
      2.42916670	     -7.01398077	     -1.01940803	      1.08225602	      0.39428074	      1.20147613	     -0.02447988	      6.06898024	      1.09063587	    -12.94206667	      1.76588584	      0.03082052	    -49.38152558	     12.45772592	     -7.49999987	      7.31017221	     -4.21620903	      2.31645319	      5.65753770	      0.09874266	    -48.55526991	     15.25659447	     -7.49999987	     -2.53237272	      1.73320165	      3.52628117	    -35.71942765	    -23.57603182	    -12.49995842	    113.31645963	     85.09187768	    -16.48426013	    -40.13582990	     12.85612963	    122.11660131	     88.81501906
      2.43333330	     -6.89087633	     -1.11850785	      1.35893374	      0.39424550	      1.20644023	     -0.02504204	      6.08398773	      1.17937564	    -11.55354094	      2.11190648	      0.03685972	    -49.27366707	     13.23601573	     -7.49999987	      7.58529066	     -4.19134651	      2.93914448	      6.14261179	      0.10720880	    -48.85351393	     15.52133986	     -7.49999987	     -2.63715023	      1.84821547	      3.17923940	    -35.11737061	    -23.33666168	    -11.97334137	    111.58300539	     85.03923249	    -16.72650961	    -38.82660891	     12.78381459	    120.92444670	     88.84912519
      2.43750000	     -6.86356574	     -1.19183965	      1.33289143	      0.39494753	      1.21111109	     -0.02422316	      6.11801144	      1.22686932	    -10.42961661	      2.43278330	      0.04246008	    -49.20297630	     13.71735895	     -7.49999987	      7.77311893	     -4.25347481	      3.70440572	      6.57454594	      0.11474747	    -48.90585645	     15.71701370	     -7.49999987	     -2.67746022	      1.67388086	      0.73360852	    -31.65707223	    -24.94178394	     -8.10387453	    108.66150917	     84.32045000	    -21.20385484	    -36.49174376	      8.64471638	    121.31160670	     89.90320520
      2.44166670	     -6.82704843	     -1.25538287	      1.19121621	      0.39556983	      1.22114550	     -0.02479257	      6.25345488	      1.28518233	     -9.70889116	      2.66724121	      0.04655214	    -49.21532226	     14.19214879	     -7.49999987	      7.89240827	     -4.20095017	      4.74514539	      6.76844176	      0.11813159	    -48.83807124	     16.00374360	     -7.49999987	     -2.71896741	      1.71191495	      0.37105377	    -30.49462368	    -25.09696753	     -6.73528598	    106.60263263	     83.86457118	    -21.90945836	    -35.15240241	      8.15017366	    120.05817665	     90.89331700
      2.44583330	     -6.77043911	     -1.38155166	      1.14837351	      0.39769081	      1.22770790	     -0.02430641	      6.16175890	      1.45328978	     -8.96190590	      2.57353258	      0.04491662	    -49.23886294	     14.56213488	     -7.49999987	      7.77680843	     -4.33818896	      5.50696015	      6.73541779	      0.11755522	    -48.82094176	     16.06963351	     -7.49999987	     -2.69158861	      1.84217635	      0.45686933	    -29.93205064	    -24.91532971	     -6.08641409	    104.51522394	     83.78284892	    -21.86252049	    -34.21045128	      8.56597155	    118.57272641	     90.91449442
      2.45000000	     -6.64642587	     -1.55015276	      1.15892311	      0.39832414	      1.23080958	     -0.02501752	      6.11089241	      1.61613803	     -7.88694371	      2.55937476	      0.04466952	    -49.26507566	     15.07026959	     -7.49999987	      7.59463080	     -4.52462143	      6.71817088	      6.62485714	      0.11562557	    -48.74356754	     16.27775156	     -7.49999987	     -2.69260721	      1.96124072	     -0.24106183	    -28.18933819	    -25.30727943	     -4.21168098	    101.80986953	     83.23628066	    -22.70592560	    -32.95088513	      8.02124352	    117.38784446	     91.00040280
      2.45416670	     -6.40349214	     -1.74108145	      1.28783306	      0.39823822	      1.23691256	     -0.02330022	      5.87875735	      1.91160325	     -6.49396248	      2.48865957	      0.04343530	    -49.28172073	     15.57903421	     -7.49999987	      7.35163298	     -4.79284832	      7.36195107	      6.50836282	      0.11359236	    -48.57573615	     16.01767350	     -7.49999987	     -2.92912754	      2.13535971	     -0.31857776	    -27.55644110	    -24.89077397	     -3.80505409	     99.74527920	     83.20690624	    -22.24973742	    -32.22738858	      8.37638030	    115.60388528	     91.01854081
      2.45833330	     -6.29085190	     -1.81613186	      1.31302711	      0.39785276	      1.24116004	     -0.02249659	      5.92484263	      2.08489412	     -6.16593244	      2.43763237	      0.04254471	    -49.36864089	     15.66927063	     -7.49999987	      7.32248348	     -4.96314398	      7.28030980	      6.43069747	      0.11223684	    -48.79173435	     15.67474883	     -7.49999987	     -2.93809488	      2.15408696	     -0.28756470	    -26.74093843	    -24.53306948	     -2.68659534	     97.50261572	     80.65461182	    -21.66997443	    -31.99934226	      9.44373521	    113.96882994	     87.93300259
      2.46250000	     -6.23529732	     -1.72113425	      1.49317964	      0.40116770	      1.24496229	     -0.02619607	      5.73044258	      1.92609368	     -5.64685313	      2.30857756	      0.04029228	    -49.37527730	     16.03968456	     -7.49999987	      7.24073320	     -4.78485313	      7.71996866	      6.47580924	      0.11302419	    -48.80978756	     15.48097846	     -7.49999987	     -2.70305593	      2.02718275	     -0.38625505	    -26.04823615	    -24.23207111	     -1.97100031	     94.99660829	     81.13543061	    -21.27472844	    -31.46584929	     10.42457453	    112.14293695	     88.61645536
      2.46666670	     -6.22560568	     -1.50626244	      1.61073571	      0.40384460	      1.25338557	     -0.02465545	      5.54424609	      1.78774706	     -5.27047217	      1.99702902	      0.03485473	    -49.39339865	     16.51241881	     -7.49999987	      7.00561573	     -4.55301288	      7.19539671	      6.13969054	      0.10715782	    -49.00306320	     14.81073716	     -7.49999987	     -2.64257766	      1.74504866	     -0.45153670	    -25.94632297	    -23.61774209	     -1.72965482	     93.31366992	     81.24866984	    -21.25407124	    -30.77961304	     10.77556821	    110.63592988	     88.78082978
      2.47083330	     -6.27613689	     -1.20522995	      1.68923738	      0.40397470	      1.25613239	     -0.02287075	      5.56235100	      1.60464835	     -4.76385704	      1.78813626	      0.03120887	    -49.37575777	     16.65412268	     -7.49999987	      7.05598621	     -4.29375769	      6.92080072	      6.08576718	      0.10621667	    -49.08849829	     14.77091203	     -7.49999987	     -2.34167432	      1.34690025	     -0.22582685	    -25.58881744	    -23.21155037	     -0.61613958	     91.18251061	     76.30313841	    -20.60074230	    -30.67997696	     12.56897602	    109.18984932	     81.80940098
      2.47500000	     -6.07619436	     -1.09137929	      1.56182351	      0.40212607	      1.25772464	     -0.02324773	      5.43833316	      1.56558457	     -3.90756821	      1.48881598	      0.02598474	    -49.29963245	     16.46731109	     -7.49999987	      6.86922483	     -4.14378074	      6.42556739	      5.88207010	      0.10266149	    -49.23991752	     14.14131646	     -7.49999987	     -2.57581021	      1.10179535	      0.05737168	    -25.05938122	    -22.63413937	      0.00992668	     89.10852556	     73.44518314	    -19.97196851	    -30.27633173	     13.62278557	    107.48313453	     77.94439561
      2.47916670	     -6.05978878	     -0.91600276	      2.01646892	      0.40359719	      1.26488977	     -0.02395268	      5.31857398	      1.26233842	     -3.87107141	      1.07434829	      0.01875091	    -49.17846715	     16.56854174	     -7.49999987	      7.04642848	     -3.96416141	      6.11017149	      5.72240867	      0.09987487	    -49.30659493	     13.55925020	     -7.49999987	     -2.61414721	      0.95871965	      0.05437808	    -24.85354540	    -21.63180418	     -0.70938506	     86.80557630	     82.59811193	    -19.19724166	    -29.56577624	     13.60082864	    105.35809774	     89.71463562
      2.48333330	     -5.91136188	     -0.66369336	      1.95299646	      0.40598143	      1.27244344	     -0.02203079	      5.05456699	      1.07485631	     -3.71565048	      0.84027130	      0.01466550	    -49.00933318	     16.55488248	     -7.49999987	      6.71437702	     -3.90310002	      5.46184750	      5.19897245	      0.09073919	    -49.38148917	     13.29684664	     -7.49999987	     -2.65105386	      0.58501946	      0.14937739	    -24.38931532	    -20.84041916	     -0.41737661	     84.70356378	     82.58105998	    -19.08745170	    -28.87536942	     13.78095744	    103.73865409	     89.66568948
